<svg width="22" height="33" viewBox="0 0 22 33" fill="none" xmlns="http://www.w3.org/2000/svg">
<path fill-rule="evenodd" clip-rule="evenodd" d="M16.9436 0C17.3774 0 17.7291 0.390932 17.7291 0.87317C17.7291 0.944305 17.7213 1.01517 17.7059 1.0842L17.1188 3.70418C20.6467 4.99278 22.3623 8.35889 21.7043 12.5299L20.3206 21.2783C19.4684 26.6308 16.6984 29.1207 12.3936 29.8402L11.8794 32.1319C11.7922 32.521 11.4779 32.794 11.1171 32.794H6.51847C6.08462 32.794 5.73292 32.4031 5.73292 31.9209C5.73292 31.8497 5.74074 31.7789 5.75621 31.7099L6.16876 29.8707C1.94223 29.1009 -0.428485 26.155 0.0642475 22.0502L0.141122 21.4498C0.679241 16.7754 3.52358 14.0308 10.1732 14.0308C12.71 14.0308 14.5935 14.4597 15.4775 15.0172L15.8234 12.7443C16.2463 10.257 15.2469 8.58447 12.4025 8.58447C10.0194 8.58447 8.28978 9.48505 7.94385 11.7579H2.40891C3.06561 6.55201 5.58709 3.73872 11.0074 3.22452L11.5827 0.66214C11.6698 0.273071 11.9842 0 12.3449 0H16.9436ZM10.7113 18.1048C7.67479 18.1048 6.32949 19.1341 5.94512 21.5356L5.86825 21.9644C5.44544 24.366 6.82917 25.4381 9.5582 25.4381C12.3641 25.4381 14.0553 23.98 14.4013 21.9216L14.4397 21.5356C14.8625 19.1341 13.8632 18.1048 10.7113 18.1048Z" fill="#4A4A4A"/>
</svg>
