<svg width="35" height="28" viewBox="0 0 35 28" fill="none" xmlns="http://www.w3.org/2000/svg">
<path d="M34.4433 3.25727C33.6657 3.58891 32.8584 3.85055 32.0301 4.03997C32.9428 3.20581 33.6291 2.16246 34.0163 0.997887C34.1268 0.665422 33.7513 0.377931 33.4391 0.555941C32.2868 1.21332 31.0455 1.70648 29.7497 2.02187C29.6746 2.04017 29.597 2.04945 29.5192 2.04945C29.2831 2.04945 29.0537 1.96516 28.8732 1.81218C27.4945 0.643591 25.7214 0 23.8805 0C23.0839 0 22.2796 0.119412 21.49 0.354952C19.0433 1.0848 17.1554 3.02583 16.5631 5.42063C16.3409 6.31888 16.2808 7.21796 16.3842 8.09282C16.3961 8.19336 16.3466 8.26353 16.3162 8.29644C16.2627 8.35413 16.1868 8.38721 16.1081 8.38721C16.0993 8.38721 16.0902 8.3868 16.0813 8.38597C10.7256 7.90742 5.89601 5.42588 2.48224 1.39855C2.30816 1.19313 1.97433 1.21833 1.83558 1.44722C1.16708 2.55024 0.813797 3.81181 0.813797 5.09555C0.813797 7.06293 1.63564 8.91697 3.06319 10.2686C2.46287 10.1317 1.88183 9.91608 1.3421 9.62777C1.08098 9.48825 0.759695 9.66758 0.756026 9.95482C0.71865 12.8775 2.49786 15.4781 5.16317 16.6492C5.10949 16.6504 5.05582 16.651 5.00206 16.651C4.57957 16.651 4.15179 16.6117 3.73076 16.5344C3.4367 16.4804 3.18966 16.7486 3.28096 17.0228C4.14607 19.6204 6.47159 21.5351 9.25449 21.9698C6.94485 23.461 4.25522 24.2475 1.45585 24.2475L0.58314 24.247C0.314254 24.247 0.0868398 24.4156 0.0183169 24.6661C-0.049182 24.9128 0.0751491 25.173 0.30444 25.3013C3.45888 27.0669 7.05697 28 10.7113 28C13.91 28 16.9022 27.3895 19.6047 26.1855C22.0822 25.0818 24.2715 23.504 26.1118 21.496C27.8262 19.6254 29.1667 17.4661 30.0962 15.078C30.9822 12.8017 31.4505 10.3727 31.4505 8.05375V7.94329C31.4504 7.57094 31.6255 7.22058 31.931 6.98209C33.0903 6.07686 34.0998 5.01126 34.9314 3.81493C35.1509 3.49905 34.8046 3.10314 34.4433 3.25727Z" fill="#4A4A4A"/>
</svg>
