<svg width="53" height="46" viewBox="0 0 53 46" fill="none" xmlns="http://www.w3.org/2000/svg">
<path d="M23.9994 11.0007C23.9996 8.70313 24.7909 6.47566 26.2402 4.69281C27.6895 2.90996 29.7084 1.68046 31.9575 1.21101C34.2066 0.741561 36.5488 1.06079 38.5903 2.11503C40.6317 3.16927 42.248 4.89424 43.1673 6.99991L51.9994 7.00001L43.9338 15.0656C43.4086 23.1781 39.8157 30.7866 33.8846 36.3462C27.9535 41.9058 20.1288 44.9999 11.9994 45C3.9994 45 1.9994 42 1.9994 42C1.9994 42 9.9994 39 13.9994 33C13.9994 33 -2.0006 25 1.9994 3.00001C1.9994 3.00001 11.9994 13 23.9959 15L23.9994 11.0007Z" stroke="#D00000" stroke-width="2" stroke-linecap="round" stroke-linejoin="round"/>
</svg>
