<svg width="39" height="34" viewBox="0 0 39 34" fill="none" xmlns="http://www.w3.org/2000/svg">
<path d="M12.8926 33.374C12.8926 33.6062 13.0215 33.8191 13.2265 33.9276C13.4313 34.036 13.6804 34.022 13.8719 33.8909L18.184 30.9466L12.8927 28.4246V33.374H12.8926Z" fill="#4A4A4A"/>
<path d="M38.5447 0.166333C38.4262 0.0571403 38.2734 0 38.1189 0C38.0257 0 37.9328 0.0206644 37.8449 0.0638719L0.618701 18.3243C0.238209 18.5113 -0.00256248 18.8999 2.05786e-05 19.3249C0.00260363 19.7494 0.247446 20.1353 0.630677 20.3181L10.4417 24.993L30.0589 8.86927L12.8726 26.1512L25.0947 31.9748C25.2448 32.0467 25.4087 32.0825 25.5709 32.0825C25.7093 32.0825 25.8464 32.0573 25.9769 32.006C26.2615 31.8934 26.4878 31.668 26.6007 31.3832L38.7016 0.856243C38.7974 0.616019 38.735 0.341355 38.5447 0.166333Z" fill="#4A4A4A"/>
</svg>
